<svg xmlns="http://www.w3.org/2000/svg" viewBox="0 0 88.02 133.51">
    <defs>
        <style>.cls-1{fill:#295c8f;stroke:#b1d5d4;}.cls-1,.cls-2,.cls-3{stroke-miterlimit:10;}.cls-2{fill:#29929d;}.cls-2,.cls-3{stroke:#bbdfde;}.cls-3{fill:none;}</style>
    </defs>
    <title>actualities-icon</title>
    <g id="Layer_2" data-name="Layer 2">
        <g id="Layer_1-2" data-name="Layer 1">
            <path class="cls-1" d="M85.94,132.77l-77.22-31Q7.94,51.26,7.15.77l80.36,35Q86.73,84.26,85.94,132.77Z" />
            <path class="cls-2" d="M79.3,132.77l-77.21-31Q1.3,51.26.51.77l80.37,35Q80.08,84.26,79.3,132.77Z" />
            <line class="cls-1" x1="15.48" y1="25.27" x2="65.91" y2="46.27" />
            <line class="cls-1" x1="15.48" y1="39.27" x2="40.7" y2="50.27" />
            <line class="cls-1" x1="15.48" y1="44.27" x2="47" y2="57.27" />
            <line class="cls-1" x1="15.81" y1="48.55" x2="60.39" y2="66.94" />
            <line class="cls-1" x1="15.2" y1="52.52" x2="60.39" y2="71.16" />
            <line class="cls-1" x1="15.2" y1="56.52" x2="57.02" y2="73.77" />
            <line class="cls-1" x1="15.2" y1="60.52" x2="59.79" y2="78.91" />
            <line class="cls-1" x1="15.2" y1="64.52" x2="49.74" y2="78.77" />
            <line class="cls-1" x1="15.22" y1="68.69" x2="51.78" y2="83.77" />
            <path class="cls-3" d="M27.06,92.47,15.17,87.7l-.24-15.54L27.3,77.54Z" />
            <path class="cls-3" d="M46.6,110.2l-11.89-4.77-.24-15.55,12.37,5.39Z" />
            <line class="cls-1" x1="33.96" y1="80.42" x2="54.2" y2="88.77" />
            <line class="cls-1" x1="34.05" y1="84.66" x2="48.86" y2="90.77" />
            <line class="cls-1" x1="14.71" y1="90.78" x2="29.51" y2="96.89" />
            <line class="cls-1" x1="14.71" y1="94.78" x2="24.15" y2="98.68" />
        </g>
    </g>

</svg>