<svg xmlns="http://www.w3.org/2000/svg" viewBox="0 0 427.5 122.18">
    <defs>
        <style>.cls-1{fill:#26333b;stroke:#2c8d99;}.cls-1,.cls-2{stroke-miterlimit:10;stroke-width:2px;}.cls-2{font-size:6px;fill:#2e4d55;stroke:#2e4d55;font-family:MyriadPro-Regular, Myriad Pro;}.cls-3{letter-spacing:-0.04em;}.cls-4{letter-spacing:-0.04em;}.cls-5{letter-spacing:0em;}.cls-6{letter-spacing:0em;}.cls-7{letter-spacing:0.02em;}.cls-8{letter-spacing:-0.02em;}.cls-9{letter-spacing:0.03em;}</style>
    </defs>
    <title>nav-border</title>
    <g id="Layer_2" data-name="Layer 2">
        <g id="Layer_1-2" data-name="Layer 1">
            <polygon class="cls-1" points="1 1 18.86 1 18.86 121.18 1 121.18 1 108.19 7.5 103.31 7.5 75.71 1 69.21 1 1" />
            <polygon class="cls-1" points="23.74 1 22.11 121.18 410.26 121.18 426.5 108.19 426.5 7.5 134.17 9.12 121.18 1 23.74 1" />
            <text class="cls-2" transform="translate(42.5 99.74)">
                <tspan class="cls-3">L</tspan>
                <tspan x="2.6" y="0">OREM iPSUM DO</tspan>
                <tspan class="cls-4" x="44.67" y="0">L</tspan>
                <tspan x="47.27" y="0">OR SIT </tspan>
                <tspan class="cls-5" x="64.55" y="0">A</tspan>
                <tspan class="cls-6" x="68.2" y="0">M</tspan>
                <tspan class="cls-7" x="73.02" y="0">E</tspan>
                <tspan x="76.07" y="0">T </tspan>
                <tspan class="cls-8" x="0" y="7.2">C</tspan>
                <tspan x="3.35" y="7.2">ONSE</tspan>
                <tspan class="cls-9" x="17.35" y="7.2">C</tspan>
                <tspan x="20.99" y="7.2">T</tspan>
                <tspan class="cls-7" x="23.98" y="7.2">E</tspan>
                <tspan x="27.02" y="7.2">TUR ADIPISCING</tspan>
            </text>
        </g>
    </g>
</svg>